<mxfile host="65bd71144e">
    <diagram id="rZFc7C305wJ5fgUl-Him" name="Page-1">
        <mxGraphModel dx="977" dy="897" grid="1" gridSize="10" guides="1" tooltips="1" connect="1" arrows="1" fold="1" page="1" pageScale="1" pageWidth="850" pageHeight="1100" math="0" shadow="0">
            <root>
                <mxCell id="0"/>
                <mxCell id="1" parent="0"/>
                <mxCell id="8" value="&amp;lt;E&amp;gt;" style="edgeStyle=none;html=1;entryX=0;entryY=0.5;entryDx=0;entryDy=0;fontSize=20;" edge="1" parent="1" source="3" target="6">
                    <mxGeometry relative="1" as="geometry"/>
                </mxCell>
                <mxCell id="14" value="id" style="edgeStyle=none;html=1;entryX=0.5;entryY=0;entryDx=0;entryDy=0;fontSize=20;" edge="1" parent="1" source="3" target="12">
                    <mxGeometry relative="1" as="geometry"/>
                </mxCell>
                <mxCell id="3" value="&lt;pre style=&quot;font-size: 20px&quot;&gt;&amp;lt;E'&amp;gt; → • &amp;lt;E&amp;gt; ─┤&lt;br&gt;&amp;lt;E&amp;gt; → • id&lt;br&gt;&amp;lt;E&amp;gt; → • id ( &amp;lt;E&amp;gt; )&lt;br&gt;&amp;lt;E&amp;gt; → • &amp;lt;E&amp;gt; + id&lt;/pre&gt;" style="rounded=0;whiteSpace=wrap;html=1;align=left;" parent="1" vertex="1">
                    <mxGeometry x="120" y="80" width="240" height="120" as="geometry"/>
                </mxCell>
                <mxCell id="5" value="&lt;pre&gt;&lt;font style=&quot;font-size: 20px&quot;&gt;∇&lt;/font&gt;&lt;/pre&gt;" style="rounded=0;whiteSpace=wrap;html=1;" parent="1" vertex="1">
                    <mxGeometry x="120" y="40" width="80" height="40" as="geometry"/>
                </mxCell>
                <mxCell id="11" value="─┤" style="edgeStyle=none;html=1;entryX=0;entryY=0.5;entryDx=0;entryDy=0;fontSize=20;" edge="1" parent="1" source="6" target="9">
                    <mxGeometry y="-10" relative="1" as="geometry">
                        <mxPoint as="offset"/>
                    </mxGeometry>
                </mxCell>
                <mxCell id="25" value="+" style="edgeStyle=none;html=1;entryX=0.5;entryY=0;entryDx=0;entryDy=0;fontSize=20;" edge="1" parent="1" source="6" target="22">
                    <mxGeometry relative="1" as="geometry"/>
                </mxCell>
                <mxCell id="6" value="&lt;pre style=&quot;font-size: 20px&quot;&gt;&amp;lt;E'&amp;gt; → &amp;lt;E&amp;gt; • ─┤&lt;br&gt;&amp;lt;E&amp;gt; → &amp;lt;E&amp;gt; • + id&lt;/pre&gt;" style="rounded=0;whiteSpace=wrap;html=1;align=left;" vertex="1" parent="1">
                    <mxGeometry x="440" y="100" width="240" height="80" as="geometry"/>
                </mxCell>
                <mxCell id="7" value="&lt;pre&gt;&lt;font style=&quot;font-size: 20px&quot;&gt;&amp;lt;E&amp;gt;&lt;sub&gt;x1&lt;/sub&gt;&lt;/font&gt;&lt;/pre&gt;" style="rounded=0;whiteSpace=wrap;html=1;" vertex="1" parent="1">
                    <mxGeometry x="440" y="60" width="80" height="40" as="geometry"/>
                </mxCell>
                <mxCell id="9" value="&lt;pre&gt;&lt;span style=&quot;font-size: 20px&quot;&gt;&amp;lt;E'&amp;gt; → &amp;lt;E&amp;gt; ─┤ •&lt;br&gt;&lt;/span&gt;&lt;/pre&gt;" style="rounded=0;whiteSpace=wrap;html=1;align=left;" vertex="1" parent="1">
                    <mxGeometry x="760" y="120" width="200" height="40" as="geometry"/>
                </mxCell>
                <mxCell id="10" value="&lt;pre&gt;&lt;pre style=&quot;text-align: left ; font-size: 20px&quot;&gt;─┤&lt;sub&gt;0&lt;/sub&gt;&lt;/pre&gt;&lt;/pre&gt;" style="rounded=0;whiteSpace=wrap;html=1;" vertex="1" parent="1">
                    <mxGeometry x="760" y="80" width="80" height="40" as="geometry"/>
                </mxCell>
                <mxCell id="17" value="(" style="edgeStyle=none;html=1;entryX=0.5;entryY=0;entryDx=0;entryDy=0;fontSize=20;" edge="1" parent="1" source="12" target="15">
                    <mxGeometry relative="1" as="geometry"/>
                </mxCell>
                <mxCell id="12" value="&lt;pre&gt;&lt;span style=&quot;font-size: 20px&quot;&gt;&amp;lt;E&amp;gt; → id •&lt;br/&gt;&amp;lt;E&amp;gt; → id • ( &amp;lt;E&amp;gt; )&lt;br&gt;&lt;/span&gt;&lt;/pre&gt;" style="rounded=0;whiteSpace=wrap;html=1;align=left;" vertex="1" parent="1">
                    <mxGeometry x="120" y="280" width="240" height="80" as="geometry"/>
                </mxCell>
                <mxCell id="13" value="&lt;pre&gt;&lt;font style=&quot;font-size: 20px&quot;&gt;id&lt;sub&gt;x&lt;/sub&gt;&lt;/font&gt;&lt;/pre&gt;" style="rounded=0;whiteSpace=wrap;html=1;" vertex="1" parent="1">
                    <mxGeometry x="120" y="240" width="80" height="40" as="geometry"/>
                </mxCell>
                <mxCell id="18" value="id" style="edgeStyle=none;html=1;exitX=0.75;exitY=0;exitDx=0;exitDy=0;entryX=0.75;entryY=1;entryDx=0;entryDy=0;fontSize=20;" edge="1" parent="1" source="15" target="12">
                    <mxGeometry relative="1" as="geometry"/>
                </mxCell>
                <mxCell id="21" value="&amp;lt;E&amp;gt;" style="edgeStyle=none;html=1;entryX=0;entryY=0.5;entryDx=0;entryDy=0;fontSize=20;" edge="1" parent="1" source="15" target="19">
                    <mxGeometry relative="1" as="geometry"/>
                </mxCell>
                <mxCell id="15" value="&lt;pre&gt;&lt;span style=&quot;font-size: 20px&quot;&gt;&amp;lt;E&amp;gt; → id ( • &amp;lt;E&amp;gt; )&lt;br/&gt;&amp;lt;E&amp;gt; → • id&lt;br/&gt;&amp;lt;E&amp;gt; → • id ( &amp;lt;E&amp;gt; )&lt;br/&gt;&amp;lt;E&amp;gt; → • &amp;lt;E&amp;gt; + id&lt;br&gt;&lt;/span&gt;&lt;/pre&gt;" style="rounded=0;whiteSpace=wrap;html=1;align=left;" vertex="1" parent="1">
                    <mxGeometry x="120" y="440" width="240" height="120" as="geometry"/>
                </mxCell>
                <mxCell id="16" value="&lt;pre&gt;&lt;font style=&quot;font-size: 20px&quot;&gt;(&lt;sub&gt;2&lt;/sub&gt;&lt;/font&gt;&lt;/pre&gt;" style="rounded=0;whiteSpace=wrap;html=1;" vertex="1" parent="1">
                    <mxGeometry x="120" y="400" width="80" height="40" as="geometry"/>
                </mxCell>
                <mxCell id="24" value="+" style="edgeStyle=none;html=1;entryX=0.5;entryY=1;entryDx=0;entryDy=0;fontSize=20;" edge="1" parent="1" source="19" target="22">
                    <mxGeometry relative="1" as="geometry"/>
                </mxCell>
                <mxCell id="31" value=")" style="edgeStyle=none;html=1;entryX=0;entryY=0.5;entryDx=0;entryDy=0;fontSize=20;" edge="1" parent="1" source="19" target="29">
                    <mxGeometry relative="1" as="geometry"/>
                </mxCell>
                <mxCell id="19" value="&lt;pre&gt;&lt;span style=&quot;font-size: 20px&quot;&gt;&amp;lt;E&amp;gt; → id ( &amp;lt;E&amp;gt; • )&lt;br/&gt;&amp;lt;E&amp;gt; → &amp;lt;E&amp;gt; • + id&lt;br&gt;&lt;/span&gt;&lt;/pre&gt;" style="rounded=0;whiteSpace=wrap;html=1;align=left;" vertex="1" parent="1">
                    <mxGeometry x="440" y="460" width="240" height="80" as="geometry"/>
                </mxCell>
                <mxCell id="20" value="&lt;pre&gt;&lt;font style=&quot;font-size: 20px&quot;&gt;&amp;lt;E&amp;gt;&lt;sub&gt;x2&lt;/sub&gt;&lt;/font&gt;&lt;/pre&gt;" style="rounded=0;whiteSpace=wrap;html=1;" vertex="1" parent="1">
                    <mxGeometry x="440" y="420" width="80" height="40" as="geometry"/>
                </mxCell>
                <mxCell id="28" value="id" style="edgeStyle=none;html=1;entryX=0;entryY=0.5;entryDx=0;entryDy=0;fontSize=20;" edge="1" parent="1" source="22" target="26">
                    <mxGeometry relative="1" as="geometry"/>
                </mxCell>
                <mxCell id="22" value="&lt;pre&gt;&lt;span style=&quot;font-size: 20px&quot;&gt;&amp;lt;E&amp;gt; → &amp;lt;E&amp;gt; + • id&lt;br&gt;&lt;/span&gt;&lt;/pre&gt;" style="rounded=0;whiteSpace=wrap;html=1;align=left;" vertex="1" parent="1">
                    <mxGeometry x="440" y="280" width="240" height="40" as="geometry"/>
                </mxCell>
                <mxCell id="23" value="&lt;pre&gt;&lt;font style=&quot;font-size: 20px&quot;&gt;+&lt;sub&gt;3&lt;/sub&gt;&lt;/font&gt;&lt;/pre&gt;" style="rounded=0;whiteSpace=wrap;html=1;" vertex="1" parent="1">
                    <mxGeometry x="440" y="240" width="80" height="40" as="geometry"/>
                </mxCell>
                <mxCell id="26" value="&lt;pre&gt;&lt;span style=&quot;font-size: 20px&quot;&gt;&amp;lt;E&amp;gt; → &amp;lt;E&amp;gt; + id •&lt;br&gt;&lt;/span&gt;&lt;/pre&gt;" style="rounded=0;whiteSpace=wrap;html=1;align=left;" vertex="1" parent="1">
                    <mxGeometry x="760" y="280" width="200" height="40" as="geometry"/>
                </mxCell>
                <mxCell id="27" value="&lt;pre&gt;&lt;font style=&quot;font-size: 20px&quot;&gt;id&lt;sub&gt;3&lt;/sub&gt;&lt;/font&gt;&lt;/pre&gt;" style="rounded=0;whiteSpace=wrap;html=1;" vertex="1" parent="1">
                    <mxGeometry x="760" y="240" width="80" height="40" as="geometry"/>
                </mxCell>
                <mxCell id="29" value="&lt;pre&gt;&lt;span style=&quot;font-size: 20px&quot;&gt;&amp;lt;E&amp;gt; → id ( &amp;lt;E&amp;gt; ) •&lt;br&gt;&lt;/span&gt;&lt;/pre&gt;" style="rounded=0;whiteSpace=wrap;html=1;align=left;" vertex="1" parent="1">
                    <mxGeometry x="760" y="480" width="240" height="40" as="geometry"/>
                </mxCell>
                <mxCell id="30" value="&lt;pre&gt;&lt;font style=&quot;font-size: 20px&quot;&gt;)&lt;sub&gt;2&lt;/sub&gt;&lt;/font&gt;&lt;/pre&gt;" style="rounded=0;whiteSpace=wrap;html=1;" vertex="1" parent="1">
                    <mxGeometry x="760" y="440" width="80" height="40" as="geometry"/>
                </mxCell>
            </root>
        </mxGraphModel>
    </diagram>
</mxfile>
